TITLE ""
FILE "Step3_Track35.mp3" MP3
  TRACK 01 AUDIO
    TITLE "Step3_Track35_01"
    INDEX 01 00:00:00
  TRACK 02 AUDIO
    TITLE "Step3_Track35_02"
    INDEX 01 00:00:22
  TRACK 03 AUDIO
    TITLE "Step3_Track35_03"
    INDEX 01 00:01:65
  TRACK 04 AUDIO
    TITLE "Step3_Track35_04"
    INDEX 01 00:02:48
  TRACK 05 AUDIO
    TITLE "Step3_Track35_05"
    INDEX 01 00:03:42
  TRACK 06 AUDIO
    TITLE "Step3_Track35_06"
    INDEX 01 00:03:58
  TRACK 07 AUDIO
    TITLE "Step3_Track35_07"
    INDEX 01 00:06:11
  TRACK 08 AUDIO
    TITLE "Step3_Track35_08"
    INDEX 01 00:06:38
  TRACK 09 AUDIO
    TITLE "Step3_Track35_09"
    INDEX 01 00:07:40
  TRACK 10 AUDIO
    TITLE "Step3_Track35_10"
    INDEX 01 00:07:42
  TRACK 11 AUDIO
    TITLE "Step3_Track35_11"
    INDEX 01 00:10:30
  TRACK 12 AUDIO
    TITLE "Step3_Track35_12"
    INDEX 01 00:10:60
  TRACK 13 AUDIO
    TITLE "Step3_Track35_13"
    INDEX 01 00:11:59
  TRACK 14 AUDIO
    TITLE "Step3_Track35_14"
    INDEX 01 00:11:61
  TRACK 15 AUDIO
    TITLE "Step3_Track35_15"
    INDEX 01 00:14:55
  TRACK 16 AUDIO
    TITLE "Step3_Track35_16"
    INDEX 01 00:15:18
  TRACK 17 AUDIO
    TITLE "Step3_Track35_17"
    INDEX 01 00:16:15
  TRACK 18 AUDIO
    TITLE "Step3_Track35_18"
    INDEX 01 00:16:17
  TRACK 19 AUDIO
    TITLE "Step3_Track35_19"
    INDEX 01 00:18:71
  TRACK 20 AUDIO
    TITLE "Step3_Track35_20"
    INDEX 01 00:19:35
  TRACK 21 AUDIO
    TITLE "Step3_Track35_21"
    INDEX 01 00:20:31
  TRACK 22 AUDIO
    TITLE "Step3_Track35_22"
    INDEX 01 00:20:37
  TRACK 23 AUDIO
    TITLE "Step3_Track35_23"
    INDEX 01 00:24:19
  TRACK 24 AUDIO
    TITLE "Step3_Track35_24"
    INDEX 01 00:24:36
  TRACK 25 AUDIO
    TITLE "Step3_Track35_25"
    INDEX 01 00:25:38
  TRACK 26 AUDIO
    TITLE "Step3_Track35_26"
    INDEX 01 00:25:40
  TRACK 27 AUDIO
    TITLE "Step3_Track35_27"
    INDEX 01 00:28:09
  TRACK 28 AUDIO
    TITLE "Step3_Track35_28"
    INDEX 01 00:28:42
  TRACK 29 AUDIO
    TITLE "Step3_Track35_29"
    INDEX 01 00:29:43
  TRACK 30 AUDIO
    TITLE "Step3_Track35_30"
    INDEX 01 00:29:57
  TRACK 31 AUDIO
    TITLE "Step3_Track35_31"
    INDEX 01 00:33:63
  TRACK 32 AUDIO
    TITLE "Step3_Track35_32"
    INDEX 01 00:34:17
  TRACK 33 AUDIO
    TITLE "Step3_Track35_33"
    INDEX 01 00:35:07
  TRACK 34 AUDIO
    TITLE "Step3_Track35_34"
    INDEX 01 00:35:15
  TRACK 35 AUDIO
    TITLE "Step3_Track35_35"
    INDEX 01 00:38:60
  TRACK 36 AUDIO
    TITLE "Step3_Track35_36"
    INDEX 01 00:39:01
  TRACK 37 AUDIO
    TITLE "Step3_Track35_37"
    INDEX 01 00:40:04
  TRACK 38 AUDIO
    TITLE "Step3_Track35_38"
    INDEX 01 00:40:14
  TRACK 39 AUDIO
    TITLE "Step3_Track35_39"
    INDEX 01 00:42:62
  TRACK 40 AUDIO
    TITLE "Step3_Track35_40"
    INDEX 01 00:43:06
  TRACK 41 AUDIO
    TITLE "Step3_Track35_41"
    INDEX 01 00:44:02
  TRACK 42 AUDIO
    TITLE "Step3_Track35_42"
    INDEX 01 00:44:10
  TRACK 43 AUDIO
    TITLE "Step3_Track35_43"
    INDEX 01 00:47:67
